PathFileType	4	(X/Y/Z)	subject01_walk1.trc
DataRate	CameraRate	NumFrames	NumMarkers	Units	OrigDataRate	OrigDataStartFrame	OrigNumFrames
60.00	60.00	       6	41	mm	60.00	76	       151
Frame#	Time	R.ASIS			L.ASIS			V.Sacral			R.Thigh.Upper			R.Thigh.Front			R.Thigh.Rear			L.Thigh.Upper			L.Thigh.Front			L.Thigh.Rear			R.Shank.Upper			R.Shank.Front			R.Shank.Rear			L.Shank.Upper			L.Shank.Front			L.Shank.Rear			R.Heel			R.Midfoot.Sup			R.Midfoot.Lat			R.Toe.Tip			L.Heel			L.Midfoot.Sup			L.Midfoot.Lat			L.Toe.Tip			Sternum			R.Acromium			L.Acromium			R.Bicep			L.Bicep			R.Elbow			L.Elbow			R.Wrist.Med			R.Wrist.Lat			L.Wrist.Med			L.Wrist.Lat			R.Toe.Lat			R.Toe.Med			L.Toe.Lat			L.Toe.Med			R.Temple			L.Temple			Top.Head			
		X1	Y1	Z1	X2	Y2	Z2	X3	Y3	Z3	X4	Y4	Z4	X5	Y5	Z5	X6	Y6	Z6	X7	Y7	Z7	X8	Y8	Z8	X9	Y9	Z9	X10	Y10	Z10	X11	Y11	Z11	X12	Y12	Z12	X13	Y13	Z13	X14	Y14	Z14	X15	Y15	Z15	X16	Y16	Z16	X17	Y17	Z17	X18	Y18	Z18	X19	Y19	Z19	X20	Y20	Z20	X21	Y21	Z21	X22	Y22	Z22	X23	Y23	Z23	X24	Y24	Z24	X25	Y25	Z25	X26	Y26	Z26	X27	Y27	Z27	X28	Y28	Z28	X29	Y29	Z29	X30	Y30	Z30	X31	Y31	Z31	X32	Y32	Z32	X33	Y33	Z33	X34	Y34	Z34	X35	Y35	Z35	X36	Y36	Z36	X37	Y37	Z37	X38	Y38	Z38	X39	Y39	Z39	X40	Y40	Z40	X41	Y41	Z41	

76	1.250000	1588.907170	1051.901120	1176.095110	1611.342040	1044.156490	913.622340	1401.391940	1052.092770	1036.136180	1481.836030	739.726260	1212.435680	1535.634220	664.326660	1127.928930	1444.139430	625.484860	1201.892410	1629.549500	743.992920	860.451160	1720.697080	735.763550	932.878810	1665.833740	642.149050	871.403150	1321.831700	474.892670	1185.395950	1384.590000	413.248690	1135.529210	1304.592440	389.398710	1188.933010	1723.844850	444.553590	879.060390	1788.165280	414.825200	929.664260	1719.196530	397.066770	872.038360	1125.308950	110.851360	1093.729260	1269.947140	89.096660	1068.434350	1252.554350	72.930400	1175.828860	1397.900570	43.573540	1118.865550	1788.926820	65.943140	961.721180	1942.395450	128.584300	985.317590	1929.939090	116.205870	889.043630	2055.509280	151.624570	955.257820	1630.760800	1352.587400	1025.665180	1541.366820	1446.782590	1236.777540	1561.101380	1466.696170	819.656660	1572.928710	1247.150510	1286.371490	1541.282840	1231.207030	785.765050	1548.978150	1141.139770	1323.746700	1474.463470	1144.549800	750.928050	1752.730770	970.035160	1276.382570	1729.372380	942.056150	1332.871670	1569.229610	910.143250	790.764570	1521.036680	902.475710	733.515780	1327.161160	35.495630	1196.868480	1346.503330	39.583020	1086.431590	1998.938540	118.703230	880.066220	2010.325260	131.372240	981.928580	1706.250310	1574.834350	1111.831640	1717.325010	1578.333980	973.341370	1716.997620	1751.473390	1051.178550	
77	1.267000	1592.120910	1050.171510	1173.942780	1613.793460	1042.730960	912.583140	1403.145290	1050.256590	1033.274460	1482.108220	739.359620	1211.951390	1537.056580	662.566590	1127.894470	1443.032990	625.149900	1201.840190	1633.340450	742.803220	860.794530	1727.025210	737.375180	931.860120	1672.662110	641.249570	873.041300	1320.439880	475.483550	1185.886020	1379.217710	411.729280	1136.348660	1299.959590	390.926150	1189.791760	1729.383000	442.890230	880.709790	1791.565310	410.903840	931.968450	1721.956240	396.171200	873.621610	1110.462520	118.900620	1094.504460	1253.776290	91.421200	1069.253620	1235.768950	74.919850	1176.517180	1378.761810	43.496630	1118.296420	1776.259090	66.217410	962.805930	1932.076230	118.692100	987.888900	1920.716060	107.791830	891.726070	2046.256840	136.493130	959.952270	1631.323360	1351.370360	1022.867630	1541.245480	1445.688840	1232.802580	1561.284420	1463.419680	815.496000	1571.576900	1246.833370	1282.959050	1544.198850	1227.598390	782.290630	1547.385380	1140.773560	1320.835540	1478.728880	1140.735960	747.307570	1748.303410	966.214780	1276.854890	1724.737060	939.624080	1332.955140	1574.325680	906.596070	788.079040	1525.944890	898.375980	730.890170	1310.556850	35.233800	1197.713820	1328.722050	38.858440	1086.369630	1988.718870	106.444700	883.386840	2000.291020	118.101070	985.456210	1706.224060	1573.830080	1107.664950	1716.614070	1576.327510	969.155210	1716.808410	1750.038090	1046.614080	
78	1.283000	1592.678530	1049.749150	1172.692210	1614.799070	1040.517580	911.250120	1405.430300	1048.939820	1030.387710	1485.676060	739.404600	1214.263050	1538.366390	661.258180	1129.281280	1444.702390	624.351200	1201.435040	1636.805110	742.020200	861.025130	1733.188540	738.529240	928.470170	1676.051510	640.929020	875.873860	1319.347050	476.603580	1185.319750	1377.917480	411.242280	1137.419920	1296.348210	393.252380	1190.640080	1731.514830	440.744350	883.480790	1791.854920	406.766750	934.751090	1723.841610	395.757900	874.973200	1096.826250	128.666120	1095.300950	1238.391390	94.322560	1070.166020	1219.588440	77.556920	1177.261380	1359.626430	43.358330	1117.699980	1761.948670	67.267590	963.271600	1920.354130	108.764430	989.863860	1909.776730	99.277590	893.695660	2035.291870	120.507020	963.549740	1633.016720	1349.654050	1019.264430	1541.096500	1445.130490	1228.500490	1562.859680	1460.925420	810.657060	1569.777400	1246.647090	1279.781040	1547.392640	1224.125120	778.771640	1545.345280	1140.963620	1317.682400	1482.523190	1136.759030	744.392240	1742.856570	962.134220	1276.404690	1719.209840	936.771790	1333.521270	1578.807800	903.657290	785.562470	1531.228760	895.176760	728.066560	1291.971500	34.528740	1198.381350	1311.170350	38.065580	1086.349890	1976.097530	93.458120	885.723240	1988.362120	103.985980	987.955650	1705.611390	1573.244870	1103.339360	1716.667420	1575.822020	964.912080	1716.345400	1749.363770	1042.334140	
79	1.300000	1595.206050	1049.302490	1170.848310	1618.231870	1040.230830	910.157720	1408.143340	1048.081050	1027.635000	1486.163940	738.282650	1213.626510	1540.982670	660.080260	1129.543690	1447.271090	623.899540	1202.956710	1640.085880	741.835080	860.758120	1737.649900	738.866210	925.516310	1678.923160	640.427610	876.773170	1320.392550	477.511050	1186.711470	1376.447240	409.975490	1139.583530	1293.895260	395.279390	1191.824680	1735.647580	441.742070	883.530490	1793.129760	405.433750	936.175000	1725.004520	395.783630	875.490220	1084.898410	140.503720	1096.237340	1224.204850	98.149030	1071.046090	1204.303280	81.182440	1177.979640	1340.650330	43.050880	1117.113120	1747.100520	68.827290	963.224730	1908.032100	100.141640	991.493780	1897.603820	91.536640	894.989560	2023.138370	105.595050	965.848820	1634.610230	1349.264040	1014.926690	1540.855960	1445.663940	1223.173280	1564.623170	1458.796880	805.494340	1568.766850	1246.860230	1276.253170	1548.890320	1221.487670	776.057790	1542.787170	1141.780150	1314.270900	1486.936130	1133.946290	740.737240	1736.861820	957.986690	1277.922910	1711.824830	933.931640	1334.063020	1583.870120	900.738530	782.680940	1535.491640	892.410460	725.437560	1273.329740	34.347250	1198.694170	1293.879270	37.314180	1086.370600	1962.020630	81.293270	887.162210	1975.129330	90.890830	989.522510	1706.183650	1573.205810	1099.118700	1717.897090	1575.903440	960.504730	1716.404480	1749.377080	1037.112700	
80	1.317000	1597.957700	1049.405760	1168.770080	1621.886960	1041.302000	908.778570	1411.164980	1047.644530	1025.153040	1490.515720	737.679500	1213.585740	1548.333130	659.776370	1130.332960	1454.827970	622.883180	1203.294080	1643.398800	742.419430	859.634520	1741.791690	738.856020	922.585550	1681.347410	641.263550	876.815600	1325.766240	480.229520	1188.586530	1378.480740	408.593320	1140.780200	1295.040890	398.597600	1191.501680	1738.002690	442.280000	882.297550	1793.707640	403.829650	936.483460	1725.245850	396.063290	874.823050	1075.516380	154.803040	1097.372060	1211.753750	103.261600	1071.836610	1190.254500	86.221670	1178.574040	1322.025850	42.479350	1116.616820	1731.909850	70.535690	962.830300	1895.106630	93.306760	992.704530	1884.211670	85.081850	895.630200	2009.813660	92.659240	966.950290	1636.991880	1350.424800	1010.797420	1539.850650	1446.455440	1218.996510	1567.335450	1457.555910	800.470720	1567.518800	1248.296510	1272.240750	1555.599490	1220.512700	771.416930	1539.741090	1143.296880	1310.581880	1491.698820	1131.439330	737.663210	1730.001770	954.889340	1278.846010	1703.384770	931.623720	1335.565800	1590.312560	898.643430	780.141800	1541.111940	889.886960	722.832640	1256.366790	33.330990	1198.673490	1277.077760	36.963620	1086.355000	1946.992860	70.830850	887.899510	1960.870480	79.909900	990.355030	1704.864930	1573.931880	1095.026380	1718.119380	1576.923460	956.178300	1716.325260	1750.771240	1032.396640	
81	1.333000	1600.920350	1049.997680	1166.965650	1625.388980	1042.936650	906.551120	1414.349460	1047.639530	1022.987230	1497.591710	737.955990	1212.823780	1557.450810	659.288760	1130.800570	1463.430730	621.231870	1204.102830	1646.585020	743.730900	857.550770	1745.938350	740.279050	920.868220	1685.268680	642.576900	874.458890	1334.416260	482.054630	1190.307600	1385.306460	407.404510	1142.592420	1299.760410	401.969880	1193.456860	1736.573550	442.535400	882.088930	1791.667050	402.025600	935.960570	1723.976200	396.369750	873.031720	1069.737370	171.814210	1098.449420	1201.656620	109.914470	1072.592110	1177.852550	93.106400	1178.942960	1303.908870	41.509360	1116.434340	1716.165100	72.067070	962.197570	1881.148070	88.106340	993.168620	1869.541690	80.040920	895.595590	1995.245360	81.889310	967.076790	1638.378660	1351.684080	1007.166670	1540.593140	1448.176270	1213.258870	1568.815730	1457.734010	795.388890	1565.546570	1249.943850	1267.910060	1559.745420	1219.614500	767.961810	1536.281560	1145.506960	1306.625790	1498.143740	1129.794800	734.380160	1722.443240	951.166930	1280.361420	1692.323850	931.048770	1336.862370	1595.937930	896.839110	778.249690	1546.596250	887.942080	720.694760	1239.755390	34.749600	1198.198090	1261.172700	37.594210	1086.304580	1931.247310	62.337040	888.059300	1945.650630	71.344130	990.558270	1706.623170	1576.255250	1090.223250	1719.176880	1578.466920	951.580400	1715.439330	1752.274780	1027.778030	
